<svg width="256" height="256" viewBox="0 0 256 256" fill="none" xmlns="http://www.w3.org/2000/svg">
<rect width="256" height="256" rx="60" fill="url(#paint0_linear_1_1)"/>
<path d="M128 40C74.9822 40 40 74.9822 40 128C40 181.018 74.9822 216 128 216C181.018 216 216 181.018 216 128C216 74.9822 181.018 40 128 40Z" fill="url(#paint1_radial_1_1)" fill-opacity="0.2"/>
<path d="M192 128C192 163.346 163.346 192 128 192C92.6538 192 64 163.346 64 128C64 92.6538 92.6538 64 128 64" stroke="url(#paint2_linear_1_1)" stroke-width="16" stroke-linecap="round" stroke-linejoin="round"/>
<path d="M128 128L160 96" stroke="white" stroke-width="12" stroke-linecap="round"/>
<defs>
<linearGradient id="paint0_linear_1_1" x1="0" y1="0" x2="256" y2="256" gradientUnits="userSpaceOnUse">
<stop stop-color="#2E314D"/>
<stop offset="1" stop-color="#1C1E2E"/>
</linearGradient>
<radialGradient id="paint1_radial_1_1" cx="0" cy="0" r="1" gradientUnits="userSpaceOnUse" gradientTransform="translate(128 128) rotate(90) scale(96)">
<stop stop-color="white"/>
<stop offset="1" stop-color="white" stop-opacity="0"/>
</radialGradient>
<linearGradient id="paint2_linear_1_1" x1="64" y1="64" x2="192" y2="192" gradientUnits="userSpaceOnUse">
<stop stop-color="#FFD700"/>
<stop offset="1" stop-color="#FFA500"/>
</linearGradient>
</defs>
</svg>
